<?xml version="1.0" standalone="no"?>
<!DOCTYPE svg PUBLIC "-//W3C//DTD SVG 20010904//EN"
 "http://www.w3.org/TR/2001/REC-SVG-20010904/DTD/svg10.dtd">
<svg version="1.0" xmlns="http://www.w3.org/2000/svg"
 width="1844.000000pt" height="1545.000000pt" viewBox="0 0 1844.000000 1545.000000"
 preserveAspectRatio="xMidYMid meet">

<g transform="translate(0.000000,1545.000000) scale(0.100000,-0.100000)"
fill="#000000" stroke="none">
<path d="M13445 11633 c-178 -25 -322 -111 -413 -248 -73 -108 -103 -208 -109
-360 -6 -150 11 -238 68 -354 73 -147 211 -262 382 -316 43 -14 97 -25 121
-25 54 0 139 -42 171 -84 71 -94 103 -227 114 -476 5 -96 13 -187 19 -202 24
-57 128 -148 172 -148 6 0 10 68 10 198 0 258 19 334 94 371 24 11 33 11 67
-5 88 -39 150 -140 157 -255 5 -89 -13 -155 -58 -215 -35 -46 -39 -101 -15
-216 53 -255 254 -458 523 -529 111 -30 286 -30 406 -1 220 55 427 196 558
382 359 509 410 1474 103 1955 -49 76 -164 196 -235 245 -172 117 -392 185
-680 210 -63 5 -303 10 -533 10 -389 0 -422 1 -490 20 -142 40 -322 58 -432
43z"/>
<path d="M3075 10546 c-138 -32 -283 -110 -397 -215 -55 -50 -59 -52 -90 -42
-128 42 -296 30 -406 -29 -66 -35 -149 -113 -190 -177 l-27 -43 -94 0 c-161 0
-296 -51 -404 -154 -118 -113 -180 -256 -180 -416 0 -110 17 -182 70 -282 63
-121 187 -224 320 -267 l69 -22 22 -112 c43 -208 118 -385 242 -570 190 -284
439 -459 704 -493 l51 -7 -69 73 c-88 94 -158 201 -197 305 l-31 82 -30 -15
c-45 -22 -134 -11 -197 24 -39 22 -47 31 -39 41 8 10 5 19 -11 37 -11 12 -18
27 -14 31 5 5 0 3 -9 -4 -20 -15 -24 -26 -6 -15 7 4 8 3 4 -5 -5 -7 -2 -10 6
-9 7 2 12 -3 10 -10 -1 -8 2 -11 8 -7 5 3 10 1 10 -4 0 -18 -15 -12 -40 14
-13 14 -19 25 -14 25 5 0 4 4 -2 8 -18 12 -34 72 -34 131 0 61 35 148 58 143
6 -1 11 4 10 10 -2 7 2 12 9 11 6 -1 14 4 17 13 3 8 2 12 -4 9 -6 -3 -10 -4
-10 -2 0 14 69 44 81 36 23 -15 34 -10 13 5 -18 14 -17 15 14 11 18 -2 44 -13
58 -24 l25 -19 -33 -7 c-64 -13 -68 -15 -68 -46 0 -21 -4 -28 -12 -24 -7 4 -2
-3 11 -14 20 -18 31 -20 77 -15 45 6 54 4 54 -9 0 -8 3 -23 7 -33 5 -13 3 -15
-7 -9 -9 5 -11 4 -6 -3 4 -7 13 -12 21 -12 13 0 69 58 76 79 2 6 27 14 55 17
l51 6 18 -133 c19 -147 30 -183 67 -217 33 -30 115 -43 196 -30 35 5 72 8 83
5 11 -3 17 -1 13 5 -4 7 6 9 30 6 20 -2 36 -1 36 3 0 4 32 11 71 17 181 27
255 133 247 352 -3 89 -3 90 22 94 55 11 182 27 184 24 2 -2 10 -33 20 -70 34
-139 91 -230 168 -269 34 -17 55 -20 163 -17 68 2 122 5 120 9 -2 3 32 10 76
17 149 21 195 68 187 188 l-5 69 46 51 c106 116 151 242 158 439 8 219 -29
377 -142 610 -200 411 -538 726 -891 830 -110 33 -303 43 -399 21z m580 -763
c61 -136 150 -276 249 -390 37 -43 149 -130 197 -153 l46 -23 12 -86 c7 -47
15 -96 18 -108 5 -20 1 -23 -28 -23 -56 0 -518 -69 -538 -80 -35 -18 -51 -52
-51 -107 0 -29 -3 -53 -7 -53 -8 0 -112 -16 -169 -25 -31 -5 -32 -4 -38 37
-11 69 -44 98 -112 98 -52 0 -542 -68 -582 -81 -44 -15 -64 -48 -64 -109 l1
-50 -37 0 c-36 0 -38 2 -54 53 -9 28 -15 52 -15 52 1 0 56 26 122 59 281 137
542 322 709 503 141 153 250 337 284 480 9 40 19 73 22 73 3 0 18 -31 35 -67z
m515 -885 c0 -7 11 -92 25 -188 14 -96 25 -189 25 -207 0 -43 -25 -66 -66 -61
-19 2 -35 1 -36 -2 -4 -8 -214 -40 -262 -40 -85 0 -150 95 -187 272 -16 80
-25 166 -16 169 20 6 452 67 480 68 23 1 37 -4 37 -11z m-902 -208 c7 -47 11
-126 9 -176 -7 -168 -56 -221 -210 -230 -40 -2 -74 -4 -77 -5 -10 -4 -99 -18
-145 -24 -16 -1 -34 -4 -40 -5 -26 -6 -46 2 -59 23 -19 28 -73 414 -60 427 11
11 475 79 529 77 l40 -2 13 -85z"/>
<path d="M3835 8786 c-58 -26 -95 -85 -95 -151 0 -23 6 -38 18 -44 29 -15 52
5 52 45 0 93 132 128 170 45 7 -14 16 -33 20 -41 4 -8 18 -15 31 -15 20 0 25
6 27 33 9 96 -123 172 -223 128z"/>
<path d="M3955 8439 c-4 -6 -5 -12 -2 -15 2 -3 7 2 10 11 7 17 1 20 -8 4z"/>
<path d="M2902 8650 c-81 -49 -109 -190 -38 -190 26 0 36 17 36 61 0 43 39 79
85 79 42 0 95 -44 95 -79 0 -26 37 -38 57 -18 31 31 -14 119 -78 152 -41 22
-117 19 -157 -5z"/>
<path d="M9502 10469 c-309 -36 -560 -237 -691 -554 -81 -194 -96 -417 -61
-865 17 -209 21 -329 17 -455 -7 -251 -18 -284 -237 -735 -145 -297 -195 -416
-232 -553 -19 -69 -23 -108 -23 -247 0 -156 2 -169 28 -234 57 -143 166 -271
320 -374 76 -52 186 -113 234 -130 51 -18 113 -71 149 -128 38 -59 61 -123 88
-239 41 -177 179 -380 335 -494 292 -212 616 -224 1006 -36 373 179 708 503
886 857 234 463 237 1001 10 1491 -42 92 -90 177 -178 317 -181 289 -248 570
-273 1145 -27 632 -67 800 -230 966 -113 115 -254 169 -515 194 -77 8 -180 26
-230 39 -49 14 -134 30 -188 36 -109 11 -111 11 -215 -1z"/>
<path d="M2320 8629 c0 -5 5 -7 10 -4 6 3 10 8 10 11 0 2 -4 4 -10 4 -5 0 -10
-5 -10 -11z"/>
<path d="M2256 8598 c3 -5 10 -6 15 -3 13 9 11 12 -6 12 -8 0 -12 -4 -9 -9z"/>
<path d="M2195 8290 c-3 -5 -5 -10 -3 -11 33 -8 38 -7 27 7 -14 17 -16 17 -24
4z"/>
<path d="M3998 8243 c7 -3 16 -2 19 1 4 3 -2 6 -13 5 -11 0 -14 -3 -6 -6z"/>
<path d="M2390 8210 c0 -5 5 -10 11 -10 5 0 7 5 4 10 -3 6 -8 10 -11 10 -2 0
-4 -4 -4 -10z"/>
<path d="M2257 8189 c7 -7 15 -10 18 -7 3 3 -2 9 -12 12 -14 6 -15 5 -6 -5z"/>
<path d="M13425 7992 c-100 -22 -491 -166 -517 -190 -4 -4 33 -5 82 -4 119 5
177 -14 243 -80 65 -65 84 -112 108 -270 76 -490 150 -744 284 -973 97 -166
257 -333 420 -437 136 -88 330 -165 513 -204 129 -28 180 -31 113 -8 -153 54
-327 180 -435 314 -246 307 -389 715 -491 1400 -34 231 -44 278 -66 321 -40
80 -174 149 -254 131z"/>
<path d="M16240 7765 c8 -10 33 -37 55 -59 75 -77 124 -165 182 -326 122 -338
165 -762 193 -1930 12 -475 24 -798 45 -1155 31 -535 42 -1197 26 -1608 -3
-92 -3 -167 1 -167 15 0 132 104 264 235 133 132 233 247 323 374 73 101 181
285 181 307 0 7 -16 4 -41 -9 -54 -26 -160 -28 -209 -3 -90 47 -157 128 -201
245 -76 202 -150 625 -194 1106 -29 326 -36 442 -42 805 -6 378 4 610 32 758
29 153 112 277 229 343 31 17 56 36 56 41 0 20 -73 183 -118 263 -124 222
-294 423 -503 598 -63 52 -218 160 -270 188 -23 12 -23 11 -9 -6z"/>
<path d="M3785 7610 c3 -5 8 -10 11 -10 2 0 4 5 4 10 0 6 -5 10 -11 10 -5 0
-7 -4 -4 -10z"/>
<path d="M3150 7510 c-8 -5 -10 -10 -5 -10 6 0 17 5 25 10 8 5 11 10 5 10 -5
0 -17 -5 -25 -10z"/>
<path d="M3856 7298 c10 -14 21 -24 23 -22 3 3 -6 15 -18 27 l-24 22 19 -27z"/>
<path d="M3889 7263 c-9 -10 -9 -14 -2 -10 17 11 28 -55 15 -92 -14 -40 -41
-69 -85 -92 -33 -17 -50 -19 -122 -13 -47 4 -82 10 -80 14 3 4 -2 11 -11 14
-8 3 -12 2 -9 -4 9 -14 -14 -13 -102 6 -114 23 -243 72 -243 92 0 15 -2 15
-11 2 -8 -11 -12 -12 -16 -2 -2 6 -9 12 -14 12 -5 0 -21 7 -35 16 -18 12 -22
20 -14 29 8 9 8 15 0 20 -6 4 -9 1 -8 -7 2 -7 -4 -13 -12 -13 -8 0 -14 5 -13
12 3 17 -103 -10 -127 -32 -50 -45 -7 -156 104 -269 155 -160 357 -252 490
-224 93 19 160 112 174 240 l7 60 42 -66 c49 -77 90 -106 151 -106 34 0 49 6
72 28 86 86 43 342 -65 388 -45 18 -69 18 -86 -3z"/>
<path d="M3215 7230 c-3 -5 -1 -10 4 -10 6 0 11 5 11 10 0 6 -2 10 -4 10 -3 0
-8 -4 -11 -10z"/>
<path d="M3469 7113 c-13 -16 -12 -17 4 -4 9 7 17 15 17 17 0 8 -8 3 -21 -13z"/>
<path d="M7763 6729 c-9 -9 0 -26 36 -68 177 -207 269 -472 302 -871 13 -162
0 -442 -31 -682 -18 -140 -77 -459 -95 -513 l-7 -20 16 20 c76 100 74 95 105
265 120 668 83 1237 -106 1615 -48 94 -69 126 -141 213 -44 53 -59 61 -79 41z"/>
<path d="M6016 6322 c-57 -88 -120 -237 -141 -336 -14 -61 -16 -108 -12 -210
6 -159 25 -226 64 -226 21 0 24 3 19 23 -32 113 -38 158 -33 272 3 100 9 135
35 212 35 104 74 184 124 259 33 48 34 52 17 63 -11 6 -21 11 -24 11 -3 0 -25
-30 -49 -68z"/>
<path d="M6126 6302 c-45 -71 -94 -177 -121 -262 -37 -113 -46 -309 -21 -423
16 -71 19 -75 46 -79 17 -3 30 -4 30 -3 0 1 -9 37 -20 80 -38 148 -21 332 44
490 24 59 87 178 109 203 8 10 7 16 -4 23 -25 16 -38 10 -63 -29z"/>
<path d="M12940 6038 c-50 -185 -124 -356 -285 -653 -49 -91 -163 -303 -200
-370 -95 -176 -247 -489 -345 -714 -84 -193 -133 -401 -95 -401 10 0 15 10 15
30 0 40 27 105 69 165 62 89 158 199 223 256 136 120 162 141 165 132 2 -6
-16 -221 -41 -479 -25 -258 -50 -533 -57 -612 -8 -84 -17 -141 -23 -139 -5 2
-30 42 -55 90 -25 48 -50 85 -55 84 -5 -2 -17 -29 -26 -60 -60 -193 -170 -332
-323 -407 -150 -74 -277 -76 -423 -6 -59 28 -94 55 -163 123 -182 183 -314
396 -425 688 -15 39 -15 39 -15 10 -2 -72 82 -325 167 -510 126 -271 244 -455
514 -803 140 -180 434 -428 655 -552 l42 -23 -2 -191 c-2 -314 41 -457 181
-607 83 -89 148 -125 337 -187 118 -39 402 -109 410 -100 2 2 -18 58 -45 123
-245 601 -358 1504 -310 2466 10 191 55 699 65 727 16 45 86 675 111 992 32
418 28 926 -7 992 -20 37 -37 19 -59 -64z"/>
<path d="M3032 5900 c-36 -184 -108 -361 -202 -499 l-61 -90 48 -88 c26 -48
54 -100 60 -115 12 -26 11 -28 -10 -28 -14 0 -28 11 -39 30 -17 29 -19 30 -96
30 l-79 0 -29 -42 c-48 -71 -244 -349 -287 -407 l-39 -53 -30 51 c-37 66 -155
190 -222 235 -119 79 -269 138 -419 166 -58 11 -67 15 -62 30 5 16 -4 18 -92
22 -120 5 -144 -1 -161 -35 l-13 -27 -222 0 -222 0 -69 -86 c-214 -269 -379
-571 -487 -894 -158 -473 -191 -1001 -94 -1483 25 -122 84 -339 112 -409 l15
-38 1013 0 1012 0 10 50 10 50 -157 158 c-359 360 -702 867 -830 1227 -70 194
-51 392 86 937 l55 216 -21 39 c-17 33 -18 44 -9 72 11 31 13 32 53 25 71 -11
209 -54 275 -85 132 -61 282 -195 343 -306 l27 -50 -30 -41 -30 -41 -34 15
c-19 8 -37 14 -39 14 -10 0 -84 -167 -114 -256 -43 -125 -56 -227 -37 -295 43
-164 155 -446 260 -656 80 -161 277 -508 354 -623 20 -30 52 -80 70 -111 l34
-56 60 -7 c33 -3 99 -6 146 -6 67 0 99 -6 142 -24 l56 -23 12 166 c67 933 272
1554 630 1911 113 113 175 158 299 220 249 124 563 144 932 59 52 -12 103 -26
113 -31 10 -5 21 -8 23 -5 6 6 74 642 74 696 0 37 -2 42 -17 36 -153 -62 -488
-157 -683 -194 -232 -43 -518 -52 -685 -21 -390 72 -615 294 -680 670 l-11 65
-12 -65z m-1393 -865 c230 -48 404 -145 526 -292 70 -85 100 -146 85 -174 -11
-20 -14 -18 -49 37 -125 195 -341 331 -614 384 -45 9 -57 15 -53 27 3 8 6 19
6 24 0 12 17 11 99 -6z"/>
<path d="M5479 4721 l-29 -29 0 -172 0 -172 29 -29 29 -29 211 0 211 0 0 -180
0 -180 -494 0 c-341 0 -504 -3 -527 -11 -43 -15 -97 -65 -115 -106 -11 -24
-14 -87 -14 -248 l0 -215 -70 0 c-134 0 -170 -41 -170 -195 l0 -85 -90 0 c-98
0 -131 -10 -157 -49 -16 -24 -18 -64 -21 -438 l-3 -413 1265 0 1265 0 -5 393
c-2 215 -5 402 -4 415 0 13 -13 37 -29 53 -24 23 -38 29 -74 29 -24 0 -72 3
-106 6 l-61 7 0 94 c0 147 -23 173 -155 173 l-74 0 -3 228 c-3 218 -4 229 -26
265 -28 44 -91 83 -149 93 l-43 7 0 178 0 179 206 0 c128 0 213 4 226 11 37
20 48 69 48 219 0 150 -11 199 -48 219 -14 8 -178 11 -507 11 l-487 0 -29 -29z
m985 -37 c24 -9 24 -319 0 -328 -9 -3 -220 -6 -469 -6 -399 0 -455 2 -469 16
-23 23 -23 285 0 308 14 14 70 16 469 16 249 0 460 -3 469 -6z m-1052 -1461
c42 -38 6 -93 -61 -93 -60 0 -93 56 -55 94 21 21 92 21 116 -1z m986 -249 c22
-15 22 -19 22 -229 0 -181 -2 -216 -16 -229 -13 -13 -46 -16 -210 -16 -181 0
-195 1 -214 20 -19 19 -20 33 -20 225 0 192 1 206 20 225 19 19 33 20 208 20
154 0 192 -3 210 -16z"/>
<path d="M8030 2713 c-51 -136 -60 -208 -33 -249 41 -63 119 -96 383 -163 621
-158 1553 -202 2405 -116 190 20 216 27 254 71 30 34 31 38 26 102 -9 97 -26
192 -36 192 -4 0 -11 -5 -14 -10 -16 -26 -91 -51 -178 -61 -149 -16 -1123 -23
-1368 -10 -704 38 -1125 122 -1360 272 -25 16 -48 29 -52 29 -3 0 -15 -26 -27
-57z"/>
<path d="M7952 1378 c-12 -55 -32 -174 -53 -317 -10 -69 -14 -80 -23 -65 -6
10 -27 48 -47 84 l-36 65 -3397 3 c-1868 1 -3396 -1 -3396 -6 0 -8 97 -104
168 -165 l42 -37 3340 0 c2667 0 3339 -3 3335 -12 -6 -18 -32 -356 -40 -515
l-7 -133 1711 0 c1623 0 1711 1 1711 18 0 14 2 15 10 2 7 -11 8 -5 4 20 -3 19
0 91 5 160 11 131 12 252 4 383 l-5 78 201 -3 201 -3 0 108 0 107 -220 0 -220
0 -6 40 c-8 48 -17 51 -34 9 -17 -39 -93 -118 -148 -153 -202 -127 -596 -183
-1225 -173 -711 11 -1218 101 -1567 277 -140 70 -234 151 -274 234 l-23 47
-11 -53z"/>
<path d="M16415 902 c-82 -76 -269 -197 -377 -244 -292 -126 -781 -205 -1468
-239 -301 -15 -969 -6 -1170 15 -441 48 -769 150 -955 299 l-60 48 -3 -93 c-3
-87 12 -315 25 -379 l6 -29 1924 0 1924 0 27 30 c48 52 94 138 128 238 35 104
67 291 62 365 l-3 45 -60 -56z"/>
<path d="M1246 918 c3 -5 10 -6 15 -3 13 9 11 12 -6 12 -8 0 -12 -4 -9 -9z"/>
<path d="M1295 921 c3 -2 -1 -11 -7 -20 -7 -9 -8 -13 -3 -8 4 4 16 0 25 -8 14
-13 16 -12 15 13 0 19 -5 28 -17 28 -9 0 -15 -2 -13 -5z"/>
<path d="M1379 833 c-8 -9 -9 -14 -2 -10 6 4 13 2 15 -5 3 -8 7 -6 11 5 9 23
-8 30 -24 10z"/>
<path d="M1410 807 c0 -2 15 -14 33 -27 20 -15 27 -17 18 -6 -13 16 -51 41
-51 33z"/>
<path d="M1537 719 c7 -7 15 -10 18 -7 3 3 -2 9 -12 12 -14 6 -15 5 -6 -5z"/>
<path d="M1590 686 c0 -2 7 -7 16 -10 8 -3 12 -2 9 4 -6 10 -25 14 -25 6z"/>
<path d="M11391 680 c-25 -4 -47 -14 -53 -24 -12 -21 -29 -11 -21 12 3 9 3 14
-1 11 -11 -10 -16 -50 -5 -44 5 4 9 -13 9 -38 0 -46 26 -86 58 -88 31 -2 67 3
84 12 11 6 18 5 22 -4 3 -6 4 -3 1 8 -2 11 1 31 8 45 11 21 10 31 -4 60 -23
46 -45 57 -98 50z"/>
<path d="M1773 603 c4 -3 4 -10 1 -15 -4 -7 -2 -8 5 -4 6 4 18 3 25 -3 9 -8
13 -7 13 2 0 8 -5 14 -11 14 -6 0 -18 3 -26 5 -8 3 -12 3 -7 1z"/>
<path d="M1834 576 c1 -8 5 -18 8 -22 4 -3 5 1 4 10 -1 8 -5 18 -8 22 -4 3 -5
-1 -4 -10z"/>
<path d="M1865 560 c-3 -5 -1 -10 4 -10 6 0 11 5 11 10 0 6 -2 10 -4 10 -3 0
-8 -4 -11 -10z"/>
<path d="M11290 556 c0 -2 7 -9 15 -16 13 -11 14 -10 9 4 -5 14 -24 23 -24 12z"/>
<path d="M11335 490 c-8 -13 5 -13 25 0 13 8 13 10 -2 10 -9 0 -20 -4 -23 -10z"/>
<path d="M11418 493 c7 -3 16 -2 19 1 4 3 -2 6 -13 5 -11 0 -14 -3 -6 -6z"/>
<path d="M2097 479 c7 -7 15 -10 18 -7 3 3 -2 9 -12 12 -14 6 -15 5 -6 -5z"/>
<path d="M2274 435 c13 -10 15 -15 6 -15 -7 0 -11 -3 -7 -6 3 -3 13 -2 22 3
13 8 12 11 -12 21 -26 11 -27 11 -9 -3z"/>
<path d="M11585 350 c-3 -5 -1 -10 4 -10 6 0 11 5 11 10 0 6 -2 10 -4 10 -3 0
-8 -4 -11 -10z"/>
</g>
</svg>
